<mxfile host="app.diagrams.net" agent="Mozilla/5.0 (Windows NT 10.0; Win64; x64) AppleWebKit/537.36 (KHTML, like Gecko) Chrome/127.0.0.0 Safari/537.36" version="24.7.6">
  <diagram id="Ugjn7hZTs6cvy4DjThjI" name="หน้า-1">
    <mxGraphModel dx="1467" dy="723" grid="1" gridSize="10" guides="1" tooltips="1" connect="1" arrows="1" fold="1" page="1" pageScale="1" pageWidth="827" pageHeight="1169" background="#000000" math="0" shadow="0">
      <root>
        <mxCell id="0" />
        <mxCell id="1" parent="0" />
        <mxCell id="UP7vMurVSVJ8oQgMW22t-3" value="" style="edgeStyle=orthogonalEdgeStyle;rounded=0;orthogonalLoop=1;jettySize=auto;html=1;" edge="1" parent="1" source="UP7vMurVSVJ8oQgMW22t-1" target="UP7vMurVSVJ8oQgMW22t-2">
          <mxGeometry relative="1" as="geometry" />
        </mxCell>
        <mxCell id="UP7vMurVSVJ8oQgMW22t-4" value="" style="edgeStyle=orthogonalEdgeStyle;rounded=0;orthogonalLoop=1;jettySize=auto;html=1;" edge="1" parent="1" source="UP7vMurVSVJ8oQgMW22t-1" target="UP7vMurVSVJ8oQgMW22t-2">
          <mxGeometry relative="1" as="geometry">
            <Array as="points">
              <mxPoint x="320" y="190" />
            </Array>
          </mxGeometry>
        </mxCell>
        <mxCell id="UP7vMurVSVJ8oQgMW22t-5" style="edgeStyle=orthogonalEdgeStyle;rounded=0;orthogonalLoop=1;jettySize=auto;html=1;exitX=0.5;exitY=1;exitDx=0;exitDy=0;strokeColor=#FFFFFF;" edge="1" parent="1" source="UP7vMurVSVJ8oQgMW22t-1" target="UP7vMurVSVJ8oQgMW22t-2">
          <mxGeometry relative="1" as="geometry" />
        </mxCell>
        <mxCell id="UP7vMurVSVJ8oQgMW22t-1" value="start" style="ellipse;whiteSpace=wrap;html=1;" vertex="1" parent="1">
          <mxGeometry x="260" y="40" width="120" height="80" as="geometry" />
        </mxCell>
        <mxCell id="UP7vMurVSVJ8oQgMW22t-8" value="" style="edgeStyle=orthogonalEdgeStyle;rounded=0;orthogonalLoop=1;jettySize=auto;html=1;strokeColor=#FFFFFF;" edge="1" parent="1" source="UP7vMurVSVJ8oQgMW22t-2" target="UP7vMurVSVJ8oQgMW22t-7">
          <mxGeometry relative="1" as="geometry" />
        </mxCell>
        <mxCell id="UP7vMurVSVJ8oQgMW22t-2" value="บอกน้องไปตลาด" style="whiteSpace=wrap;html=1;" vertex="1" parent="1">
          <mxGeometry x="260" y="140" width="120" height="60" as="geometry" />
        </mxCell>
        <mxCell id="UP7vMurVSVJ8oQgMW22t-10" value="" style="edgeStyle=orthogonalEdgeStyle;rounded=0;orthogonalLoop=1;jettySize=auto;html=1;strokeColor=#FCFCFC;" edge="1" parent="1" source="UP7vMurVSVJ8oQgMW22t-7" target="UP7vMurVSVJ8oQgMW22t-9">
          <mxGeometry relative="1" as="geometry" />
        </mxCell>
        <mxCell id="UP7vMurVSVJ8oQgMW22t-7" value="รายการที่ต้องซื้อ&lt;div&gt;1.มาม่ารสใดก็ได้&lt;/div&gt;&lt;div&gt;2.หมูสับ&lt;/div&gt;&lt;div&gt;3.ผักกาดขาว 1 หัว&lt;/div&gt;" style="whiteSpace=wrap;html=1;align=center;" vertex="1" parent="1">
          <mxGeometry x="220" y="220" width="200" height="80" as="geometry" />
        </mxCell>
        <mxCell id="UP7vMurVSVJ8oQgMW22t-16" value="" style="edgeStyle=orthogonalEdgeStyle;rounded=0;orthogonalLoop=1;jettySize=auto;html=1;strokeColor=#ffffff;" edge="1" parent="1" source="UP7vMurVSVJ8oQgMW22t-9" target="UP7vMurVSVJ8oQgMW22t-15">
          <mxGeometry relative="1" as="geometry" />
        </mxCell>
        <mxCell id="UP7vMurVSVJ8oQgMW22t-9" value="นำเงินให้น้อง1,000บาท" style="whiteSpace=wrap;html=1;" vertex="1" parent="1">
          <mxGeometry x="255" y="320" width="130" height="60" as="geometry" />
        </mxCell>
        <mxCell id="UP7vMurVSVJ8oQgMW22t-19" value="" style="edgeStyle=orthogonalEdgeStyle;rounded=0;orthogonalLoop=1;jettySize=auto;html=1;strokeColor=#FFFFFF;" edge="1" parent="1" source="UP7vMurVSVJ8oQgMW22t-11" target="UP7vMurVSVJ8oQgMW22t-18">
          <mxGeometry relative="1" as="geometry" />
        </mxCell>
        <mxCell id="UP7vMurVSVJ8oQgMW22t-11" value="เช็คน้ำมันรถ" style="whiteSpace=wrap;html=1;" vertex="1" parent="1">
          <mxGeometry x="260" y="440" width="120" height="60" as="geometry" />
        </mxCell>
        <mxCell id="UP7vMurVSVJ8oQgMW22t-17" value="" style="edgeStyle=orthogonalEdgeStyle;rounded=0;orthogonalLoop=1;jettySize=auto;html=1;strokeColor=#FFFFFF;" edge="1" parent="1" source="UP7vMurVSVJ8oQgMW22t-15" target="UP7vMurVSVJ8oQgMW22t-11">
          <mxGeometry relative="1" as="geometry" />
        </mxCell>
        <mxCell id="UP7vMurVSVJ8oQgMW22t-15" value="" style="ellipse;whiteSpace=wrap;html=1;" vertex="1" parent="1">
          <mxGeometry x="310" y="400" width="20" height="20" as="geometry" />
        </mxCell>
        <mxCell id="UP7vMurVSVJ8oQgMW22t-21" value="" style="edgeStyle=orthogonalEdgeStyle;rounded=0;orthogonalLoop=1;jettySize=auto;html=1;strokeColor=#f0f3f4;" edge="1" parent="1" source="UP7vMurVSVJ8oQgMW22t-18" target="UP7vMurVSVJ8oQgMW22t-20">
          <mxGeometry relative="1" as="geometry" />
        </mxCell>
        <mxCell id="UP7vMurVSVJ8oQgMW22t-30" style="edgeStyle=orthogonalEdgeStyle;shape=connector;rounded=0;orthogonalLoop=1;jettySize=auto;html=1;exitX=1;exitY=0.5;exitDx=0;exitDy=0;strokeColor=#f0f3f4;align=center;verticalAlign=middle;fontFamily=Helvetica;fontSize=11;fontColor=default;labelBackgroundColor=default;endArrow=classic;" edge="1" parent="1" source="UP7vMurVSVJ8oQgMW22t-18">
          <mxGeometry relative="1" as="geometry">
            <mxPoint x="320" y="820" as="targetPoint" />
            <Array as="points">
              <mxPoint x="410" y="565" />
              <mxPoint x="410" y="800" />
              <mxPoint x="321" y="800" />
              <mxPoint x="321" y="820" />
            </Array>
          </mxGeometry>
        </mxCell>
        <mxCell id="UP7vMurVSVJ8oQgMW22t-18" value="น้ำมันรถหมด" style="rhombus;whiteSpace=wrap;html=1;" vertex="1" parent="1">
          <mxGeometry x="275" y="520" width="90" height="90" as="geometry" />
        </mxCell>
        <mxCell id="UP7vMurVSVJ8oQgMW22t-24" value="" style="edgeStyle=orthogonalEdgeStyle;shape=connector;rounded=0;orthogonalLoop=1;jettySize=auto;html=1;strokeColor=#f0f3f4;align=center;verticalAlign=middle;fontFamily=Helvetica;fontSize=11;fontColor=default;labelBackgroundColor=default;endArrow=classic;" edge="1" parent="1" source="UP7vMurVSVJ8oQgMW22t-20" target="UP7vMurVSVJ8oQgMW22t-23">
          <mxGeometry relative="1" as="geometry" />
        </mxCell>
        <mxCell id="UP7vMurVSVJ8oQgMW22t-20" value="เติมน้ำมันรถ" style="whiteSpace=wrap;html=1;" vertex="1" parent="1">
          <mxGeometry x="260" y="630" width="120" height="60" as="geometry" />
        </mxCell>
        <mxCell id="UP7vMurVSVJ8oQgMW22t-22" value="Yes" style="text;html=1;align=center;verticalAlign=middle;resizable=0;points=[];autosize=1;strokeColor=none;fillColor=none;fontFamily=Helvetica;fontSize=11;fontColor=default;labelBackgroundColor=default;" vertex="1" parent="1">
          <mxGeometry x="320" y="600" width="40" height="30" as="geometry" />
        </mxCell>
        <mxCell id="UP7vMurVSVJ8oQgMW22t-23" value="จ่ายเงิน" style="whiteSpace=wrap;html=1;" vertex="1" parent="1">
          <mxGeometry x="260" y="710" width="120" height="60" as="geometry" />
        </mxCell>
        <mxCell id="UP7vMurVSVJ8oQgMW22t-28" value="" style="endArrow=classic;html=1;rounded=0;strokeColor=#f0f3f4;align=center;verticalAlign=middle;fontFamily=Helvetica;fontSize=11;fontColor=default;labelBackgroundColor=default;edgeStyle=orthogonalEdgeStyle;exitX=0.5;exitY=1;exitDx=0;exitDy=0;entryX=0;entryY=0.5;entryDx=0;entryDy=0;" edge="1" parent="1" source="UP7vMurVSVJ8oQgMW22t-23" target="UP7vMurVSVJ8oQgMW22t-15">
          <mxGeometry width="50" height="50" relative="1" as="geometry">
            <mxPoint x="320" y="800" as="sourcePoint" />
            <mxPoint x="230" y="760" as="targetPoint" />
            <Array as="points">
              <mxPoint x="320" y="790" />
              <mxPoint x="220" y="790" />
              <mxPoint x="220" y="410" />
            </Array>
          </mxGeometry>
        </mxCell>
        <mxCell id="UP7vMurVSVJ8oQgMW22t-31" value="No" style="text;html=1;align=center;verticalAlign=middle;resizable=0;points=[];autosize=1;strokeColor=none;fillColor=none;fontFamily=Helvetica;fontSize=11;fontColor=default;labelBackgroundColor=default;" vertex="1" parent="1">
          <mxGeometry x="360" y="538" width="40" height="30" as="geometry" />
        </mxCell>
        <mxCell id="UP7vMurVSVJ8oQgMW22t-34" value="" style="edgeStyle=orthogonalEdgeStyle;shape=connector;rounded=0;orthogonalLoop=1;jettySize=auto;html=1;strokeColor=#f0f3f4;align=center;verticalAlign=middle;fontFamily=Helvetica;fontSize=11;fontColor=default;labelBackgroundColor=default;endArrow=classic;" edge="1" parent="1" source="UP7vMurVSVJ8oQgMW22t-32" target="UP7vMurVSVJ8oQgMW22t-33">
          <mxGeometry relative="1" as="geometry" />
        </mxCell>
        <mxCell id="UP7vMurVSVJ8oQgMW22t-32" value="ขี่ไปตลาด" style="rounded=0;whiteSpace=wrap;html=1;fontFamily=Helvetica;fontSize=11;fontColor=default;labelBackgroundColor=default;" vertex="1" parent="1">
          <mxGeometry x="260" y="820" width="120" height="60" as="geometry" />
        </mxCell>
        <mxCell id="UP7vMurVSVJ8oQgMW22t-36" value="" style="edgeStyle=orthogonalEdgeStyle;shape=connector;rounded=0;orthogonalLoop=1;jettySize=auto;html=1;strokeColor=#f0f3f4;align=center;verticalAlign=middle;fontFamily=Helvetica;fontSize=11;fontColor=default;labelBackgroundColor=default;endArrow=classic;" edge="1" parent="1" source="UP7vMurVSVJ8oQgMW22t-33" target="UP7vMurVSVJ8oQgMW22t-35">
          <mxGeometry relative="1" as="geometry" />
        </mxCell>
        <mxCell id="UP7vMurVSVJ8oQgMW22t-33" value="" style="ellipse;whiteSpace=wrap;html=1;fontSize=11;rounded=0;labelBackgroundColor=default;" vertex="1" parent="1">
          <mxGeometry x="310" y="910" width="20" height="20" as="geometry" />
        </mxCell>
        <mxCell id="UP7vMurVSVJ8oQgMW22t-38" value="" style="edgeStyle=orthogonalEdgeStyle;shape=connector;rounded=0;orthogonalLoop=1;jettySize=auto;html=1;strokeColor=#f0f3f4;align=center;verticalAlign=middle;fontFamily=Helvetica;fontSize=11;fontColor=default;labelBackgroundColor=default;endArrow=classic;" edge="1" parent="1" source="UP7vMurVSVJ8oQgMW22t-35" target="UP7vMurVSVJ8oQgMW22t-37">
          <mxGeometry relative="1" as="geometry" />
        </mxCell>
        <mxCell id="UP7vMurVSVJ8oQgMW22t-35" value="ซื้อของตามรายการ" style="whiteSpace=wrap;html=1;fontSize=11;rounded=0;labelBackgroundColor=default;" vertex="1" parent="1">
          <mxGeometry x="260" y="960" width="120" height="60" as="geometry" />
        </mxCell>
        <mxCell id="UP7vMurVSVJ8oQgMW22t-40" value="" style="edgeStyle=orthogonalEdgeStyle;shape=connector;rounded=0;orthogonalLoop=1;jettySize=auto;html=1;strokeColor=#f0f3f4;align=center;verticalAlign=middle;fontFamily=Helvetica;fontSize=11;fontColor=default;labelBackgroundColor=default;endArrow=classic;" edge="1" parent="1" source="UP7vMurVSVJ8oQgMW22t-37" target="UP7vMurVSVJ8oQgMW22t-39">
          <mxGeometry relative="1" as="geometry" />
        </mxCell>
        <mxCell id="UP7vMurVSVJ8oQgMW22t-49" style="edgeStyle=orthogonalEdgeStyle;shape=connector;rounded=0;orthogonalLoop=1;jettySize=auto;html=1;strokeColor=#f0f3f4;align=center;verticalAlign=middle;fontFamily=Helvetica;fontSize=11;fontColor=default;labelBackgroundColor=default;endArrow=classic;" edge="1" parent="1" source="UP7vMurVSVJ8oQgMW22t-37">
          <mxGeometry relative="1" as="geometry">
            <mxPoint x="320" y="1420" as="targetPoint" />
            <Array as="points">
              <mxPoint x="401" y="1105" />
              <mxPoint x="401" y="1400" />
            </Array>
          </mxGeometry>
        </mxCell>
        <mxCell id="UP7vMurVSVJ8oQgMW22t-37" value="ของไม่ครบ&lt;div&gt;ตามรายการ&lt;/div&gt;" style="rhombus;whiteSpace=wrap;html=1;fontSize=11;rounded=0;labelBackgroundColor=default;" vertex="1" parent="1">
          <mxGeometry x="265" y="1050" width="110" height="110" as="geometry" />
        </mxCell>
        <mxCell id="UP7vMurVSVJ8oQgMW22t-43" value="" style="edgeStyle=orthogonalEdgeStyle;shape=connector;rounded=0;orthogonalLoop=1;jettySize=auto;html=1;strokeColor=#f0f3f4;align=center;verticalAlign=middle;fontFamily=Helvetica;fontSize=11;fontColor=default;labelBackgroundColor=default;endArrow=classic;" edge="1" parent="1" source="UP7vMurVSVJ8oQgMW22t-39">
          <mxGeometry relative="1" as="geometry">
            <mxPoint x="320" y="1280" as="targetPoint" />
          </mxGeometry>
        </mxCell>
        <mxCell id="UP7vMurVSVJ8oQgMW22t-39" value="ซื้อของที่ยังไม่มีในรายการ" style="whiteSpace=wrap;html=1;fontSize=11;rounded=0;labelBackgroundColor=default;" vertex="1" parent="1">
          <mxGeometry x="260" y="1188" width="120" height="60" as="geometry" />
        </mxCell>
        <mxCell id="UP7vMurVSVJ8oQgMW22t-41" value="Yes" style="text;html=1;align=center;verticalAlign=middle;resizable=0;points=[];autosize=1;strokeColor=none;fillColor=none;fontFamily=Helvetica;fontSize=11;fontColor=default;labelBackgroundColor=default;" vertex="1" parent="1">
          <mxGeometry x="320" y="1158" width="40" height="30" as="geometry" />
        </mxCell>
        <mxCell id="UP7vMurVSVJ8oQgMW22t-46" value="" style="edgeStyle=orthogonalEdgeStyle;shape=connector;rounded=0;orthogonalLoop=1;jettySize=auto;html=1;strokeColor=#f0f3f4;align=center;verticalAlign=middle;fontFamily=Helvetica;fontSize=11;fontColor=default;labelBackgroundColor=default;endArrow=classic;entryX=0;entryY=0.5;entryDx=0;entryDy=0;exitX=0.5;exitY=1;exitDx=0;exitDy=0;" edge="1" parent="1" source="UP7vMurVSVJ8oQgMW22t-44" target="UP7vMurVSVJ8oQgMW22t-33">
          <mxGeometry relative="1" as="geometry">
            <mxPoint x="241" y="1460" as="sourcePoint" />
            <mxPoint x="240" y="1050" as="targetPoint" />
            <Array as="points">
              <mxPoint x="320" y="1370" />
              <mxPoint x="241" y="1370" />
              <mxPoint x="241" y="920" />
            </Array>
          </mxGeometry>
        </mxCell>
        <mxCell id="UP7vMurVSVJ8oQgMW22t-44" value="ซื้อจนกว่าจะครบตามรายการ" style="rounded=0;whiteSpace=wrap;html=1;fontFamily=Helvetica;fontSize=11;fontColor=default;labelBackgroundColor=default;" vertex="1" parent="1">
          <mxGeometry x="260" y="1280" width="120" height="60" as="geometry" />
        </mxCell>
        <mxCell id="UP7vMurVSVJ8oQgMW22t-50" value="No" style="text;html=1;align=center;verticalAlign=middle;resizable=0;points=[];autosize=1;strokeColor=none;fillColor=none;fontFamily=Helvetica;fontSize=11;fontColor=default;labelBackgroundColor=default;" vertex="1" parent="1">
          <mxGeometry x="365" y="1080" width="40" height="30" as="geometry" />
        </mxCell>
        <mxCell id="UP7vMurVSVJ8oQgMW22t-53" value="" style="edgeStyle=orthogonalEdgeStyle;shape=connector;rounded=0;orthogonalLoop=1;jettySize=auto;html=1;strokeColor=#f0f3f4;align=center;verticalAlign=middle;fontFamily=Helvetica;fontSize=11;fontColor=default;labelBackgroundColor=default;endArrow=classic;" edge="1" parent="1" source="UP7vMurVSVJ8oQgMW22t-51" target="UP7vMurVSVJ8oQgMW22t-52">
          <mxGeometry relative="1" as="geometry" />
        </mxCell>
        <mxCell id="UP7vMurVSVJ8oQgMW22t-51" value="กลับบ้าน" style="rounded=0;whiteSpace=wrap;html=1;fontFamily=Helvetica;fontSize=11;fontColor=default;labelBackgroundColor=default;" vertex="1" parent="1">
          <mxGeometry x="260" y="1420" width="120" height="40" as="geometry" />
        </mxCell>
        <mxCell id="UP7vMurVSVJ8oQgMW22t-55" value="" style="edgeStyle=orthogonalEdgeStyle;shape=connector;rounded=0;orthogonalLoop=1;jettySize=auto;html=1;strokeColor=#f0f3f4;align=center;verticalAlign=middle;fontFamily=Helvetica;fontSize=11;fontColor=default;labelBackgroundColor=default;endArrow=classic;" edge="1" parent="1" source="UP7vMurVSVJ8oQgMW22t-52" target="UP7vMurVSVJ8oQgMW22t-54">
          <mxGeometry relative="1" as="geometry" />
        </mxCell>
        <mxCell id="UP7vMurVSVJ8oQgMW22t-52" value="นำกระทะตั้งไฟ" style="whiteSpace=wrap;html=1;fontSize=11;rounded=0;labelBackgroundColor=default;" vertex="1" parent="1">
          <mxGeometry x="260" y="1490" width="120" height="60" as="geometry" />
        </mxCell>
        <mxCell id="UP7vMurVSVJ8oQgMW22t-65" value="" style="edgeStyle=orthogonalEdgeStyle;shape=connector;rounded=0;orthogonalLoop=1;jettySize=auto;html=1;strokeColor=#f0f3f4;align=center;verticalAlign=middle;fontFamily=Helvetica;fontSize=11;fontColor=default;labelBackgroundColor=default;endArrow=classic;" edge="1" parent="1" source="UP7vMurVSVJ8oQgMW22t-54" target="UP7vMurVSVJ8oQgMW22t-64">
          <mxGeometry relative="1" as="geometry" />
        </mxCell>
        <mxCell id="UP7vMurVSVJ8oQgMW22t-54" value="นำหมูไปรวนในกระทะจนสุก" style="whiteSpace=wrap;html=1;fontSize=11;rounded=0;labelBackgroundColor=default;" vertex="1" parent="1">
          <mxGeometry x="260" y="1580" width="120" height="60" as="geometry" />
        </mxCell>
        <mxCell id="UP7vMurVSVJ8oQgMW22t-60" value="" style="edgeStyle=orthogonalEdgeStyle;shape=connector;rounded=0;orthogonalLoop=1;jettySize=auto;html=1;strokeColor=#f0f3f4;align=center;verticalAlign=middle;fontFamily=Helvetica;fontSize=11;fontColor=default;labelBackgroundColor=default;endArrow=classic;" edge="1" parent="1" source="UP7vMurVSVJ8oQgMW22t-58" target="UP7vMurVSVJ8oQgMW22t-59">
          <mxGeometry relative="1" as="geometry" />
        </mxCell>
        <mxCell id="UP7vMurVSVJ8oQgMW22t-69" value="" style="edgeStyle=orthogonalEdgeStyle;shape=connector;rounded=0;orthogonalLoop=1;jettySize=auto;html=1;strokeColor=#f0f3f4;align=center;verticalAlign=middle;fontFamily=Helvetica;fontSize=11;fontColor=default;labelBackgroundColor=default;endArrow=classic;" edge="1" parent="1" source="UP7vMurVSVJ8oQgMW22t-58" target="UP7vMurVSVJ8oQgMW22t-68">
          <mxGeometry relative="1" as="geometry">
            <Array as="points">
              <mxPoint x="410" y="1770" />
              <mxPoint x="410" y="1940" />
              <mxPoint x="320" y="1940" />
            </Array>
          </mxGeometry>
        </mxCell>
        <mxCell id="UP7vMurVSVJ8oQgMW22t-58" value="หมูไม่สุก" style="rhombus;whiteSpace=wrap;html=1;fontFamily=Helvetica;fontSize=11;fontColor=default;labelBackgroundColor=default;" vertex="1" parent="1">
          <mxGeometry x="267.5" y="1720" width="105" height="100" as="geometry" />
        </mxCell>
        <mxCell id="UP7vMurVSVJ8oQgMW22t-61" style="edgeStyle=orthogonalEdgeStyle;shape=connector;rounded=0;orthogonalLoop=1;jettySize=auto;html=1;strokeColor=#f0f3f4;align=center;verticalAlign=middle;fontFamily=Helvetica;fontSize=11;fontColor=default;labelBackgroundColor=default;endArrow=classic;entryX=0;entryY=0.5;entryDx=0;entryDy=0;" edge="1" parent="1" source="UP7vMurVSVJ8oQgMW22t-59" target="UP7vMurVSVJ8oQgMW22t-64">
          <mxGeometry relative="1" as="geometry">
            <mxPoint x="290" y="1660" as="targetPoint" />
            <Array as="points">
              <mxPoint x="320" y="1930" />
              <mxPoint x="240" y="1930" />
              <mxPoint x="240" y="1685" />
            </Array>
          </mxGeometry>
        </mxCell>
        <mxCell id="UP7vMurVSVJ8oQgMW22t-59" value="รวนจนหมูสุก" style="whiteSpace=wrap;html=1;fontSize=11;labelBackgroundColor=default;" vertex="1" parent="1">
          <mxGeometry x="260" y="1850" width="120" height="60" as="geometry" />
        </mxCell>
        <mxCell id="UP7vMurVSVJ8oQgMW22t-66" value="" style="edgeStyle=orthogonalEdgeStyle;shape=connector;rounded=0;orthogonalLoop=1;jettySize=auto;html=1;strokeColor=#f0f3f4;align=center;verticalAlign=middle;fontFamily=Helvetica;fontSize=11;fontColor=default;labelBackgroundColor=default;endArrow=classic;" edge="1" parent="1" source="UP7vMurVSVJ8oQgMW22t-64" target="UP7vMurVSVJ8oQgMW22t-58">
          <mxGeometry relative="1" as="geometry" />
        </mxCell>
        <mxCell id="UP7vMurVSVJ8oQgMW22t-64" value="" style="ellipse;whiteSpace=wrap;html=1;aspect=fixed;fontFamily=Helvetica;fontSize=11;fontColor=default;labelBackgroundColor=default;" vertex="1" parent="1">
          <mxGeometry x="305" y="1670" width="30" height="30" as="geometry" />
        </mxCell>
        <mxCell id="UP7vMurVSVJ8oQgMW22t-67" value="Yes" style="text;html=1;align=center;verticalAlign=middle;resizable=0;points=[];autosize=1;strokeColor=none;fillColor=none;fontFamily=Helvetica;fontSize=11;fontColor=default;labelBackgroundColor=default;" vertex="1" parent="1">
          <mxGeometry x="320" y="1818" width="40" height="30" as="geometry" />
        </mxCell>
        <mxCell id="UP7vMurVSVJ8oQgMW22t-72" value="" style="edgeStyle=orthogonalEdgeStyle;shape=connector;rounded=0;orthogonalLoop=1;jettySize=auto;html=1;strokeColor=#f0f3f4;align=center;verticalAlign=middle;fontFamily=Helvetica;fontSize=11;fontColor=default;labelBackgroundColor=default;endArrow=classic;" edge="1" parent="1" source="UP7vMurVSVJ8oQgMW22t-68" target="UP7vMurVSVJ8oQgMW22t-71">
          <mxGeometry relative="1" as="geometry" />
        </mxCell>
        <mxCell id="UP7vMurVSVJ8oQgMW22t-68" value="ปรถงรสด้วยซีอิ้วขาว" style="whiteSpace=wrap;html=1;fontSize=11;labelBackgroundColor=default;" vertex="1" parent="1">
          <mxGeometry x="260" y="1950" width="120" height="60" as="geometry" />
        </mxCell>
        <mxCell id="UP7vMurVSVJ8oQgMW22t-70" value="No" style="text;html=1;align=center;verticalAlign=middle;resizable=0;points=[];autosize=1;strokeColor=none;fillColor=none;fontFamily=Helvetica;fontSize=11;fontColor=default;labelBackgroundColor=default;" vertex="1" parent="1">
          <mxGeometry x="370" y="1738" width="40" height="30" as="geometry" />
        </mxCell>
        <mxCell id="UP7vMurVSVJ8oQgMW22t-74" value="" style="edgeStyle=orthogonalEdgeStyle;shape=connector;rounded=0;orthogonalLoop=1;jettySize=auto;html=1;strokeColor=#f0f3f4;align=center;verticalAlign=middle;fontFamily=Helvetica;fontSize=11;fontColor=default;labelBackgroundColor=default;endArrow=classic;" edge="1" parent="1" source="UP7vMurVSVJ8oQgMW22t-71" target="UP7vMurVSVJ8oQgMW22t-73">
          <mxGeometry relative="1" as="geometry" />
        </mxCell>
        <mxCell id="UP7vMurVSVJ8oQgMW22t-71" value="นำขึ้นมาใส่จาน" style="whiteSpace=wrap;html=1;fontSize=11;labelBackgroundColor=default;" vertex="1" parent="1">
          <mxGeometry x="260" y="2050" width="120" height="60" as="geometry" />
        </mxCell>
        <mxCell id="UP7vMurVSVJ8oQgMW22t-76" value="" style="edgeStyle=orthogonalEdgeStyle;shape=connector;rounded=0;orthogonalLoop=1;jettySize=auto;html=1;strokeColor=#f0f3f4;align=center;verticalAlign=middle;fontFamily=Helvetica;fontSize=11;fontColor=default;labelBackgroundColor=default;endArrow=classic;" edge="1" parent="1" source="UP7vMurVSVJ8oQgMW22t-73">
          <mxGeometry relative="1" as="geometry">
            <mxPoint x="320" y="2240" as="targetPoint" />
          </mxGeometry>
        </mxCell>
        <mxCell id="UP7vMurVSVJ8oQgMW22t-73" value="หั่นผักกาดขาวเป็นท่อนขนาดพอคำ" style="whiteSpace=wrap;html=1;fontSize=11;labelBackgroundColor=default;" vertex="1" parent="1">
          <mxGeometry x="260" y="2140" width="120" height="60" as="geometry" />
        </mxCell>
        <mxCell id="UP7vMurVSVJ8oQgMW22t-77" value="A" style="shape=offPageConnector;whiteSpace=wrap;html=1;fontFamily=Helvetica;fontSize=11;fontColor=default;labelBackgroundColor=default;" vertex="1" parent="1">
          <mxGeometry x="295" y="2240" width="50" height="40" as="geometry" />
        </mxCell>
        <mxCell id="UP7vMurVSVJ8oQgMW22t-81" value="" style="edgeStyle=orthogonalEdgeStyle;shape=connector;rounded=0;orthogonalLoop=1;jettySize=auto;html=1;strokeColor=#f0f3f4;align=center;verticalAlign=middle;fontFamily=Helvetica;fontSize=11;fontColor=default;labelBackgroundColor=default;endArrow=classic;" edge="1" parent="1" source="UP7vMurVSVJ8oQgMW22t-79" target="UP7vMurVSVJ8oQgMW22t-80">
          <mxGeometry relative="1" as="geometry" />
        </mxCell>
        <mxCell id="UP7vMurVSVJ8oQgMW22t-79" value="A" style="shape=offPageConnector;whiteSpace=wrap;html=1;fontFamily=Helvetica;fontSize=11;fontColor=default;labelBackgroundColor=default;" vertex="1" parent="1">
          <mxGeometry x="545" y="50" width="50" height="40" as="geometry" />
        </mxCell>
        <mxCell id="UP7vMurVSVJ8oQgMW22t-83" value="" style="edgeStyle=orthogonalEdgeStyle;shape=connector;rounded=0;orthogonalLoop=1;jettySize=auto;html=1;strokeColor=#f0f3f4;align=center;verticalAlign=middle;fontFamily=Helvetica;fontSize=11;fontColor=default;labelBackgroundColor=default;endArrow=classic;" edge="1" parent="1" source="UP7vMurVSVJ8oQgMW22t-80" target="UP7vMurVSVJ8oQgMW22t-82">
          <mxGeometry relative="1" as="geometry" />
        </mxCell>
        <mxCell id="UP7vMurVSVJ8oQgMW22t-80" value="ล้างผักให้สะอาด" style="whiteSpace=wrap;html=1;fontSize=11;labelBackgroundColor=default;" vertex="1" parent="1">
          <mxGeometry x="510" y="120" width="120" height="50" as="geometry" />
        </mxCell>
        <mxCell id="UP7vMurVSVJ8oQgMW22t-85" value="" style="edgeStyle=orthogonalEdgeStyle;shape=connector;rounded=0;orthogonalLoop=1;jettySize=auto;html=1;strokeColor=#f0f3f4;align=center;verticalAlign=middle;fontFamily=Helvetica;fontSize=11;fontColor=default;labelBackgroundColor=default;endArrow=classic;" edge="1" parent="1" source="UP7vMurVSVJ8oQgMW22t-82" target="UP7vMurVSVJ8oQgMW22t-84">
          <mxGeometry relative="1" as="geometry" />
        </mxCell>
        <mxCell id="UP7vMurVSVJ8oQgMW22t-82" value="นำกระทะตั้งไฟ" style="whiteSpace=wrap;html=1;fontSize=11;labelBackgroundColor=default;" vertex="1" parent="1">
          <mxGeometry x="510" y="200" width="120" height="60" as="geometry" />
        </mxCell>
        <mxCell id="UP7vMurVSVJ8oQgMW22t-87" value="" style="edgeStyle=orthogonalEdgeStyle;shape=connector;rounded=0;orthogonalLoop=1;jettySize=auto;html=1;strokeColor=#f0f3f4;align=center;verticalAlign=middle;fontFamily=Helvetica;fontSize=11;fontColor=default;labelBackgroundColor=default;endArrow=classic;" edge="1" parent="1" source="UP7vMurVSVJ8oQgMW22t-84" target="UP7vMurVSVJ8oQgMW22t-86">
          <mxGeometry relative="1" as="geometry" />
        </mxCell>
        <mxCell id="UP7vMurVSVJ8oQgMW22t-84" value="เทน้ำลงกระทะ 1 ถ้วย" style="whiteSpace=wrap;html=1;fontSize=11;labelBackgroundColor=default;" vertex="1" parent="1">
          <mxGeometry x="510" y="290" width="120" height="60" as="geometry" />
        </mxCell>
        <mxCell id="UP7vMurVSVJ8oQgMW22t-93" value="" style="edgeStyle=orthogonalEdgeStyle;shape=connector;rounded=0;orthogonalLoop=1;jettySize=auto;html=1;strokeColor=#f0f3f4;align=center;verticalAlign=middle;fontFamily=Helvetica;fontSize=11;fontColor=default;labelBackgroundColor=default;endArrow=classic;" edge="1" parent="1" source="UP7vMurVSVJ8oQgMW22t-86" target="UP7vMurVSVJ8oQgMW22t-92">
          <mxGeometry relative="1" as="geometry" />
        </mxCell>
        <mxCell id="UP7vMurVSVJ8oQgMW22t-86" value="นำผักลงไปต้ม" style="whiteSpace=wrap;html=1;fontSize=11;labelBackgroundColor=default;" vertex="1" parent="1">
          <mxGeometry x="510" y="380" width="120" height="60" as="geometry" />
        </mxCell>
        <mxCell id="UP7vMurVSVJ8oQgMW22t-95" value="" style="edgeStyle=orthogonalEdgeStyle;shape=connector;rounded=0;orthogonalLoop=1;jettySize=auto;html=1;strokeColor=#f0f3f4;align=center;verticalAlign=middle;fontFamily=Helvetica;fontSize=11;fontColor=default;labelBackgroundColor=default;endArrow=classic;" edge="1" parent="1" source="UP7vMurVSVJ8oQgMW22t-92" target="UP7vMurVSVJ8oQgMW22t-94">
          <mxGeometry relative="1" as="geometry" />
        </mxCell>
        <mxCell id="UP7vMurVSVJ8oQgMW22t-92" value="รอจนน้ำเดือด" style="whiteSpace=wrap;html=1;fontSize=11;labelBackgroundColor=default;" vertex="1" parent="1">
          <mxGeometry x="510" y="470" width="120" height="60" as="geometry" />
        </mxCell>
        <mxCell id="UP7vMurVSVJ8oQgMW22t-97" value="" style="edgeStyle=orthogonalEdgeStyle;shape=connector;rounded=0;orthogonalLoop=1;jettySize=auto;html=1;strokeColor=#f0f3f4;align=center;verticalAlign=middle;fontFamily=Helvetica;fontSize=11;fontColor=default;labelBackgroundColor=default;endArrow=classic;" edge="1" parent="1" source="UP7vMurVSVJ8oQgMW22t-94" target="UP7vMurVSVJ8oQgMW22t-96">
          <mxGeometry relative="1" as="geometry" />
        </mxCell>
        <mxCell id="UP7vMurVSVJ8oQgMW22t-94" value="" style="ellipse;whiteSpace=wrap;html=1;fontSize=11;labelBackgroundColor=default;" vertex="1" parent="1">
          <mxGeometry x="556.25" y="562.5" width="27.5" height="25" as="geometry" />
        </mxCell>
        <mxCell id="UP7vMurVSVJ8oQgMW22t-99" value="" style="edgeStyle=orthogonalEdgeStyle;shape=connector;rounded=0;orthogonalLoop=1;jettySize=auto;html=1;strokeColor=#f0f3f4;align=center;verticalAlign=middle;fontFamily=Helvetica;fontSize=11;fontColor=default;labelBackgroundColor=default;endArrow=classic;" edge="1" parent="1" source="UP7vMurVSVJ8oQgMW22t-96" target="UP7vMurVSVJ8oQgMW22t-98">
          <mxGeometry relative="1" as="geometry" />
        </mxCell>
        <mxCell id="UP7vMurVSVJ8oQgMW22t-102" style="edgeStyle=orthogonalEdgeStyle;shape=connector;rounded=0;orthogonalLoop=1;jettySize=auto;html=1;strokeColor=#f0f3f4;align=center;verticalAlign=middle;fontFamily=Helvetica;fontSize=11;fontColor=default;labelBackgroundColor=default;endArrow=classic;" edge="1" parent="1">
          <mxGeometry relative="1" as="geometry">
            <mxPoint x="575" y="820" as="targetPoint" />
            <mxPoint x="608.9999999999998" y="650" as="sourcePoint" />
            <Array as="points">
              <mxPoint x="645" y="650" />
              <mxPoint x="645" y="800" />
              <mxPoint x="575" y="800" />
            </Array>
          </mxGeometry>
        </mxCell>
        <mxCell id="UP7vMurVSVJ8oQgMW22t-96" value="น้ำยังไม่เดือด" style="rhombus;whiteSpace=wrap;html=1;fontSize=11;labelBackgroundColor=default;" vertex="1" parent="1">
          <mxGeometry x="530" y="610" width="80" height="80" as="geometry" />
        </mxCell>
        <mxCell id="UP7vMurVSVJ8oQgMW22t-100" style="edgeStyle=orthogonalEdgeStyle;shape=connector;rounded=0;orthogonalLoop=1;jettySize=auto;html=1;strokeColor=#f0f3f4;align=center;verticalAlign=middle;fontFamily=Helvetica;fontSize=11;fontColor=default;labelBackgroundColor=default;endArrow=classic;" edge="1" parent="1" source="UP7vMurVSVJ8oQgMW22t-98">
          <mxGeometry relative="1" as="geometry">
            <mxPoint x="360" y="570" as="targetPoint" />
            <Array as="points">
              <mxPoint x="375" y="780" />
              <mxPoint x="300" y="780" />
              <mxPoint x="300" y="631" />
              <mxPoint x="301" y="560" />
            </Array>
          </mxGeometry>
        </mxCell>
        <mxCell id="UP7vMurVSVJ8oQgMW22t-98" value="รอจนเดือด" style="whiteSpace=wrap;html=1;fontSize=11;labelBackgroundColor=default;" vertex="1" parent="1">
          <mxGeometry x="510" y="710" width="120" height="60" as="geometry" />
        </mxCell>
        <mxCell id="UP7vMurVSVJ8oQgMW22t-101" value="Yes" style="text;html=1;align=center;verticalAlign=middle;resizable=0;points=[];autosize=1;strokeColor=none;fillColor=none;fontFamily=Helvetica;fontSize=11;fontColor=default;labelBackgroundColor=default;" vertex="1" parent="1">
          <mxGeometry x="575" y="678" width="40" height="30" as="geometry" />
        </mxCell>
        <mxCell id="UP7vMurVSVJ8oQgMW22t-103" value="No" style="text;html=1;align=center;verticalAlign=middle;resizable=0;points=[];autosize=1;strokeColor=none;fillColor=none;fontFamily=Helvetica;fontSize=11;fontColor=default;labelBackgroundColor=default;" vertex="1" parent="1">
          <mxGeometry x="615" y="618" width="40" height="30" as="geometry" />
        </mxCell>
        <mxCell id="UP7vMurVSVJ8oQgMW22t-108" value="" style="edgeStyle=orthogonalEdgeStyle;shape=connector;rounded=0;orthogonalLoop=1;jettySize=auto;html=1;strokeColor=#f0f3f4;align=center;verticalAlign=middle;fontFamily=Helvetica;fontSize=11;fontColor=default;labelBackgroundColor=default;endArrow=classic;" edge="1" parent="1" source="UP7vMurVSVJ8oQgMW22t-105" target="UP7vMurVSVJ8oQgMW22t-107">
          <mxGeometry relative="1" as="geometry" />
        </mxCell>
        <mxCell id="UP7vMurVSVJ8oQgMW22t-109" value="" style="edgeStyle=orthogonalEdgeStyle;shape=connector;rounded=0;orthogonalLoop=1;jettySize=auto;html=1;strokeColor=#f0f3f4;align=center;verticalAlign=middle;fontFamily=Helvetica;fontSize=11;fontColor=default;labelBackgroundColor=default;endArrow=classic;" edge="1" parent="1" source="UP7vMurVSVJ8oQgMW22t-105" target="UP7vMurVSVJ8oQgMW22t-107">
          <mxGeometry relative="1" as="geometry" />
        </mxCell>
        <mxCell id="UP7vMurVSVJ8oQgMW22t-105" value="ใส่เส้นมาม่าลงไป" style="rounded=0;whiteSpace=wrap;html=1;fontFamily=Helvetica;fontSize=11;fontColor=default;labelBackgroundColor=default;" vertex="1" parent="1">
          <mxGeometry x="510" y="820" width="120" height="40" as="geometry" />
        </mxCell>
        <mxCell id="UP7vMurVSVJ8oQgMW22t-118" style="edgeStyle=orthogonalEdgeStyle;shape=connector;rounded=0;orthogonalLoop=1;jettySize=auto;html=1;exitX=0.5;exitY=1;exitDx=0;exitDy=0;entryX=0.5;entryY=0;entryDx=0;entryDy=0;strokeColor=#f0f3f4;align=center;verticalAlign=middle;fontFamily=Helvetica;fontSize=11;fontColor=default;labelBackgroundColor=default;endArrow=classic;" edge="1" parent="1" source="UP7vMurVSVJ8oQgMW22t-107" target="UP7vMurVSVJ8oQgMW22t-117">
          <mxGeometry relative="1" as="geometry" />
        </mxCell>
        <mxCell id="UP7vMurVSVJ8oQgMW22t-107" value="ใส่เครื่องปรุงมาม่า" style="whiteSpace=wrap;html=1;fontSize=11;rounded=0;labelBackgroundColor=default;" vertex="1" parent="1">
          <mxGeometry x="510" y="880" width="120" height="40" as="geometry" />
        </mxCell>
        <mxCell id="UP7vMurVSVJ8oQgMW22t-113" value="" style="edgeStyle=orthogonalEdgeStyle;shape=connector;rounded=0;orthogonalLoop=1;jettySize=auto;html=1;strokeColor=#f0f3f4;align=center;verticalAlign=middle;fontFamily=Helvetica;fontSize=11;fontColor=default;labelBackgroundColor=default;endArrow=classic;" edge="1" parent="1" source="UP7vMurVSVJ8oQgMW22t-110" target="UP7vMurVSVJ8oQgMW22t-112">
          <mxGeometry relative="1" as="geometry" />
        </mxCell>
        <mxCell id="UP7vMurVSVJ8oQgMW22t-110" value="รอจนเส้นสุก" style="whiteSpace=wrap;html=1;fontSize=11;rounded=0;labelBackgroundColor=default;" vertex="1" parent="1">
          <mxGeometry x="510" y="980" width="120" height="40" as="geometry" />
        </mxCell>
        <mxCell id="UP7vMurVSVJ8oQgMW22t-115" value="" style="edgeStyle=orthogonalEdgeStyle;shape=connector;rounded=0;orthogonalLoop=1;jettySize=auto;html=1;strokeColor=#f0f3f4;align=center;verticalAlign=middle;fontFamily=Helvetica;fontSize=11;fontColor=default;labelBackgroundColor=default;endArrow=classic;" edge="1" parent="1" source="UP7vMurVSVJ8oQgMW22t-112" target="UP7vMurVSVJ8oQgMW22t-114">
          <mxGeometry relative="1" as="geometry" />
        </mxCell>
        <mxCell id="UP7vMurVSVJ8oQgMW22t-122" style="edgeStyle=orthogonalEdgeStyle;shape=connector;rounded=0;orthogonalLoop=1;jettySize=auto;html=1;exitX=1;exitY=0.5;exitDx=0;exitDy=0;strokeColor=#f0f3f4;align=center;verticalAlign=middle;fontFamily=Helvetica;fontSize=11;fontColor=default;labelBackgroundColor=default;endArrow=classic;" edge="1" parent="1">
          <mxGeometry relative="1" as="geometry">
            <mxPoint x="560" y="1260" as="targetPoint" />
            <mxPoint x="604" y="1078" as="sourcePoint" />
            <Array as="points">
              <mxPoint x="639" y="1078" />
              <mxPoint x="639" y="1238" />
              <mxPoint x="565" y="1238" />
              <mxPoint x="565" y="1260" />
            </Array>
          </mxGeometry>
        </mxCell>
        <mxCell id="UP7vMurVSVJ8oQgMW22t-112" value="เส้นยังไม่สุก" style="rhombus;whiteSpace=wrap;html=1;fontSize=11;rounded=0;labelBackgroundColor=default;" vertex="1" parent="1">
          <mxGeometry x="530" y="1040" width="80" height="80" as="geometry" />
        </mxCell>
        <mxCell id="UP7vMurVSVJ8oQgMW22t-121" style="edgeStyle=orthogonalEdgeStyle;shape=connector;rounded=0;orthogonalLoop=1;jettySize=auto;html=1;entryX=0;entryY=0.5;entryDx=0;entryDy=0;strokeColor=#f0f3f4;align=center;verticalAlign=middle;fontFamily=Helvetica;fontSize=11;fontColor=default;labelBackgroundColor=default;endArrow=classic;exitX=0.469;exitY=1.005;exitDx=0;exitDy=0;exitPerimeter=0;" edge="1" parent="1" source="UP7vMurVSVJ8oQgMW22t-114" target="UP7vMurVSVJ8oQgMW22t-117">
          <mxGeometry relative="1" as="geometry">
            <mxPoint x="370" y="1210" as="sourcePoint" />
            <Array as="points">
              <mxPoint x="371" y="1220" />
              <mxPoint x="300" y="1220" />
              <mxPoint x="300" y="940" />
            </Array>
          </mxGeometry>
        </mxCell>
        <mxCell id="UP7vMurVSVJ8oQgMW22t-114" value="ปิดฝา" style="whiteSpace=wrap;html=1;fontSize=11;rounded=0;labelBackgroundColor=default;" vertex="1" parent="1">
          <mxGeometry x="510" y="1150" width="120" height="60" as="geometry" />
        </mxCell>
        <mxCell id="UP7vMurVSVJ8oQgMW22t-119" style="edgeStyle=orthogonalEdgeStyle;shape=connector;rounded=0;orthogonalLoop=1;jettySize=auto;html=1;exitX=0.5;exitY=1;exitDx=0;exitDy=0;entryX=0.5;entryY=0;entryDx=0;entryDy=0;strokeColor=#f0f3f4;align=center;verticalAlign=middle;fontFamily=Helvetica;fontSize=11;fontColor=default;labelBackgroundColor=default;endArrow=classic;" edge="1" parent="1" source="UP7vMurVSVJ8oQgMW22t-117" target="UP7vMurVSVJ8oQgMW22t-110">
          <mxGeometry relative="1" as="geometry" />
        </mxCell>
        <mxCell id="UP7vMurVSVJ8oQgMW22t-117" value="" style="ellipse;whiteSpace=wrap;html=1;aspect=fixed;fontFamily=Helvetica;fontSize=11;fontColor=default;labelBackgroundColor=default;" vertex="1" parent="1">
          <mxGeometry x="560" y="940" width="20" height="20" as="geometry" />
        </mxCell>
        <mxCell id="UP7vMurVSVJ8oQgMW22t-120" value="Yes" style="text;html=1;align=center;verticalAlign=middle;resizable=0;points=[];autosize=1;strokeColor=none;fillColor=none;fontFamily=Helvetica;fontSize=11;fontColor=default;labelBackgroundColor=default;" vertex="1" parent="1">
          <mxGeometry x="570" y="1120" width="40" height="30" as="geometry" />
        </mxCell>
        <mxCell id="UP7vMurVSVJ8oQgMW22t-123" value="No" style="text;html=1;align=center;verticalAlign=middle;resizable=0;points=[];autosize=1;strokeColor=none;fillColor=none;fontFamily=Helvetica;fontSize=11;fontColor=default;labelBackgroundColor=default;" vertex="1" parent="1">
          <mxGeometry x="615" y="1048" width="40" height="30" as="geometry" />
        </mxCell>
        <mxCell id="UP7vMurVSVJ8oQgMW22t-128" value="" style="edgeStyle=orthogonalEdgeStyle;shape=connector;rounded=0;orthogonalLoop=1;jettySize=auto;html=1;strokeColor=#f0f3f4;align=center;verticalAlign=middle;fontFamily=Helvetica;fontSize=11;fontColor=default;labelBackgroundColor=default;endArrow=classic;" edge="1" parent="1" source="UP7vMurVSVJ8oQgMW22t-126" target="UP7vMurVSVJ8oQgMW22t-127">
          <mxGeometry relative="1" as="geometry" />
        </mxCell>
        <mxCell id="UP7vMurVSVJ8oQgMW22t-126" value="เทใส่ถ้วย" style="rounded=0;whiteSpace=wrap;html=1;fontFamily=Helvetica;fontSize=11;fontColor=default;labelBackgroundColor=default;" vertex="1" parent="1">
          <mxGeometry x="510" y="1258" width="120" height="60" as="geometry" />
        </mxCell>
        <mxCell id="UP7vMurVSVJ8oQgMW22t-130" value="" style="edgeStyle=orthogonalEdgeStyle;shape=connector;rounded=0;orthogonalLoop=1;jettySize=auto;html=1;strokeColor=#f0f3f4;align=center;verticalAlign=middle;fontFamily=Helvetica;fontSize=11;fontColor=default;labelBackgroundColor=default;endArrow=classic;" edge="1" parent="1" source="UP7vMurVSVJ8oQgMW22t-127" target="UP7vMurVSVJ8oQgMW22t-129">
          <mxGeometry relative="1" as="geometry" />
        </mxCell>
        <mxCell id="UP7vMurVSVJ8oQgMW22t-127" value="น้ำหมูมาวางในถ้วยมาม่า" style="whiteSpace=wrap;html=1;fontSize=11;rounded=0;labelBackgroundColor=default;" vertex="1" parent="1">
          <mxGeometry x="510" y="1340" width="120" height="60" as="geometry" />
        </mxCell>
        <mxCell id="UP7vMurVSVJ8oQgMW22t-132" value="" style="edgeStyle=orthogonalEdgeStyle;shape=connector;rounded=0;orthogonalLoop=1;jettySize=auto;html=1;strokeColor=#f0f3f4;align=center;verticalAlign=middle;fontFamily=Helvetica;fontSize=11;fontColor=default;labelBackgroundColor=default;endArrow=classic;" edge="1" parent="1" source="UP7vMurVSVJ8oQgMW22t-129" target="UP7vMurVSVJ8oQgMW22t-131">
          <mxGeometry relative="1" as="geometry" />
        </mxCell>
        <mxCell id="UP7vMurVSVJ8oQgMW22t-129" value="จัดจาน" style="whiteSpace=wrap;html=1;fontSize=11;rounded=0;labelBackgroundColor=default;" vertex="1" parent="1">
          <mxGeometry x="510" y="1430" width="120" height="60" as="geometry" />
        </mxCell>
        <mxCell id="UP7vMurVSVJ8oQgMW22t-131" value="END" style="ellipse;whiteSpace=wrap;html=1;fontFamily=Helvetica;fontSize=11;fontColor=default;labelBackgroundColor=default;" vertex="1" parent="1">
          <mxGeometry x="510" y="1520" width="120" height="80" as="geometry" />
        </mxCell>
      </root>
    </mxGraphModel>
  </diagram>
</mxfile>
